# xmcd
#
# Track frame offsets: 
#        150
#        9630
#        16237
#        23850
#        31535
#        38555
#        53432
#        68980
#        80677
#        99240
#        112512
#        121875
#        139940
#        159792
#        169602
#        181695
#        196980
#        209105
#        221284
#        239395
#        266067
#        278327
#
# Disc length: 3955 seconds
#
# Revision: 0
# Processed by: cddbd v1.5.2PL0 Copyright (c) Steve Scherf et al.
# Submitted via: ExactAudioCopy v1.0b3
#
DISCID=0f0f7116
DTITLE=Sherwin and Pam Linton and "The Cotton Kings" - At Home for the H
DTITLE=olidays
DYEAR=2001
DGENRE=Country
TTITLE0=Christmas Times A Comin'
TTITLE1=The Winter Song
TTITLE2=Winter Wonderland
TTITLE3=Christmas Carols By The Old Corral
TTITLE4=Good Old Fashioned Country Christmas
TTITLE5=An Old Christmas Card
TTITLE6=Santa Got A DWI
TTITLE7=To Heck With Old Santa Claus
TTITLE8=Ho Ho Ho And A Bottle Of Rum
TTITLE9=Christmas Island
TTITLE10=Mele Kaliki Maka
TTITLE11=A Soldiers Visit From Santa
TTITLE12=Silver Bells
TTITLE13=Trunckin Trees For Christmas
TTITLE14=Pretty Piper
TTITLE15=Rock-A-Billy Christmas
TTITLE16=Medley
TTITLE17=Run Rudolph Run
TTITLE18=Ruby Red Nose
TTITLE19=Christmas Guest
TTITLE20=Go Tell It On The Mountain
TTITLE21=Merry Christmas Minnesota
EXTD=
EXTT0=
EXTT1=
EXTT2=
EXTT3=
EXTT4=
EXTT5=
EXTT6=
EXTT7=
EXTT8=
EXTT9=
EXTT10=
EXTT11=
EXTT12=
EXTT13=
EXTT14=
EXTT15=
EXTT16=
EXTT17=
EXTT18=
EXTT19=
EXTT20=
EXTT21=
PLAYORDER=
